:SAMPLES-PER-SECOND 30
:FULLY-SPECIFIED
:DEGREES
147
root  34.89618677 36.5616085 -14.2799017 10.35661316 0.05280587822 4.685716152
lowerback  -8.746850014 1.883109927 0.8171392679
upperback  -3.968104601 2.019540071 -4.765439987
thorax  0.9801849723 0.7511399984 -5.224410057
lowerneck  -11.27890015 -9.400810242 -5.445000172
upperneck  11.1239996 -13.21679974 8.284009933
head  6.138460159 -6.200260162 2.252099991
lclavicle  0 -4.497500157e-015 -2.743230041e-014
lhumerus  -47.56019974 30.05660248 61.85400009
lradius  -0.1200379729 -6.507048965e-006 28.7376976
lwrist  3.192251654e-007 -3.790274832e-007 -30.27470016
lhand  -4.421075406e-031 -36.99359894 -10.73900032
lfingers  90 7.125020027 -90
lthumb  94.87364258 -25.57032378 101.1749705
rclavicle  0 -4.497500157e-015 -2.743230041e-014
rhumerus  59.80759811 -24.38459969 -54.52389908
rradius  -5.16745672e-007 2.214343908e-008 39.19889832
rwrist  0.0006954420824 -0.004670973402 -154.3820038
rhand  -1.773272061e-031 5.344679832 -6.189730167
rfingers  -90 -7.125020027 -90
rthumb  -84.14803469 -9.744171156 -58.80205063
rfemur  -11.94948959 13.88466167 12.24934578
rtibia  -1.311070204 -1.064287424 19.80920601
rfoot  0.1663887799 -20.40373611 -38.34001541
rtoes  4.002570987 19.61148178 -101.7759506
lfemur  -5.210340023 -17.9939785 -22.91909599
ltibia  6.638062477 0.1914739758 7.881266594
lfoot  0.6533234119 -23.01675987 34.24885941
ltoes  -8.621687307 -18.11529044 -115.9958678
148
root  34.8961297 36.5625036 -14.27981159 10.37811661 0.0811476633 4.694406986
lowerback  -8.711310387 1.89707005 0.8423907161
upperback  -3.969105244 2.035830021 -4.789589882
thorax  0.9636279941 0.7585830092 -5.263380051
lowerneck  -11.22539997 -9.435750008 -5.468920231
upperneck  11.06260014 -13.26650143 8.336330414
head  6.11894989 -6.22533989 2.269819975
lclavicle  0 -4.497500157e-015 -2.743230041e-014
lhumerus  -47.53689957 30.0177002 61.83449936
lradius  -0.1201618165 -6.507048965e-006 28.70549965
lwrist  3.192251654e-007 -3.790274832e-007 -30.22979927
lhand  -0 -36.94309998 -10.68309975
lfingers  90 7.125020027 -90
lthumb  94.83800898 -25.51723726 101.1159128
rclavicle  0 -4.497500157e-015 -2.743230041e-014
rhumerus  59.83769989 -24.38139915 -54.35010147
rradius  -5.16745672e-007 2.214343908e-008 38.96429825
rwrist  0.0006954420824 -0.004670973402 -154.3589935
rhand  -1.77228767e-031 4.99296999 -6.562530041
rfingers  -90 -7.125020027 -90
rthumb  -84.43170458 -9.404539094 -59.17832201
rfemur  -11.981143 13.8631897 12.24408627
rtibia  -1.320741415 -1.061375499 19.83459854
rfoot  0.1586562097 -20.38710785 -38.33779144
rtoes  3.999514057 19.61208186 -101.766843
lfemur  -5.123487949 -17.97199821 -22.95776176
ltibia  6.714950085 0.2213359326 7.702531815
lfoot  0.6570286155 -23.01151466 34.25936127
ltoes  -8.641864051 -18.10592539 -116.0607756
149
root  34.89623483 36.56240448 -14.27956529 10.37615967 0.1169830561 4.700502872
lowerback  -8.721500397 1.914170027 0.8498597741
upperback  -3.972719908 2.057709932 -4.81388998
thorax  0.9764419794 0.7690740228 -5.290929794
lowerneck  -11.22700024 -9.455699921 -5.438710213
upperneck  11.04880047 -13.29419994 8.319609642
head  6.113550186 -6.238910198 2.257339954
lclavicle  0 -4.497500157e-015 -2.743230041e-014
lhumerus  -47.4939003 29.96450043 61.85200119
lradius  -0.1202336475 -6.507048965e-006 28.68079948
lwrist  3.192251654e-007 -3.790274832e-007 -30.17819977
lhand  -4.418381259e-031 -36.94720078 -10.64820004
lfingers  90 7.125020027 -90
lthumb  94.83244991 -25.48285924 101.1170268
rclavicle  0 -4.497500157e-015 -2.743230041e-014
rhumerus  59.85749435 -24.4279995 -54.23839951
rradius  -5.16745672e-007 2.214343908e-008 38.77130127
rwrist  0.0006954420824 -0.004670973402 -154.3730011
rhand  -1.773186655e-031 5.315100193 -6.676799774
rfingers  -90 -7.125020027 -90
rthumb  -84.41111477 -9.325634523 -58.87330211
rfemur  -11.97762489 13.87741566 12.24847603
rtibia  -1.323999882 -1.051000357 19.84628677
rfoot  0.1475663632 -20.3661499 -38.37807465
rtoes  3.99450198 19.6130647 -101.7519109
lfemur  -5.049294949 -17.97645378 -22.99071503
ltibia  6.763482571 0.2123026699 7.59224081
lfoot  0.6446934938 -22.9495182 34.23707581
ltoes  -8.633038116 -18.11002533 -116.0323789
150
root  34.89649915 36.5621732 -14.27930547 10.3704071 0.1435207129 4.702633858
lowerback  -8.710550308 1.926300168 0.8514440656
upperback  -3.982539892 2.072309971 -4.823219776
thorax  0.9620329738 0.7754790187 -5.30053997
lowerneck  -11.19929981 -9.499090195 -5.550849915
upperneck  11.0557003 -13.35640049 8.425709724
head  6.130740166 -6.268010139 2.300649881
lclavicle  0 -4.497500157e-015 -2.743230041e-014
lhumerus  -47.5135994 29.9885006 61.81269836
lradius  -0.1202534139 -6.507048965e-006 28.65040016
lwrist  3.192251654e-007 -3.790274832e-007 -30.22089767
lhand  -4.419437315e-031 -36.9654007 -10.70269966
lfingers  90 7.125020027 -90
lthumb  94.85264533 -25.53563328 101.1415517
rclavicle  0 -4.497500157e-015 -2.743230041e-014
rhumerus  59.95140076 -24.46750069 -54.19490051
rradius  -5.16745672e-007 2.214343908e-008 38.47669983
rwrist  0.0006954420824 -0.004670973402 -154.3639984
rhand  -1.773674342e-031 5.48183012 -6.743000031
rfingers  -90 -7.125020027 -90
rthumb  -84.40421718 -9.279186068 -58.71612387
rfemur  -11.96273422 13.87721825 12.2562561
rtibia  -1.325638533 -1.029280186 19.84815216
rfoot  0.1509221494 -20.32453728 -38.38342285
rtoes  3.993684289 19.61322492 -101.7494749
lfemur  -4.96730566 -17.9767189 -23.01873398
ltibia  6.814026833 0.2197647989 7.474819183
lfoot  0.642534554 -22.92569923 34.24192429
ltoes  -8.638437674 -18.10751767 -116.0497508
